<?xml version="1.0" encoding="UTF-8"?>
<!DOCTYPE svg PUBLIC "-//W3C//DTD SVG 1.1//EN" "http://www.w3.org/Graphics/SVG/1.1/DTD/svg11.dtd">
<!-- Creator: CorelDRAW 2021 (64-Bit) -->
<svg xmlns="http://www.w3.org/2000/svg" xml:space="preserve" width="131.536mm" height="144.423mm" version="1.1" style="shape-rendering:geometricPrecision; text-rendering:geometricPrecision; image-rendering:optimizeQuality; fill-rule:evenodd; clip-rule:evenodd"
viewBox="0 0 129069.15 141714.95"
 xmlns:xlink="http://www.w3.org/1999/xlink"
 xmlns:xodm="http://www.corel.com/coreldraw/odm/2003">
 <defs>
  <style type="text/css">
   <![CDATA[
    .str0 {stroke:#FEFEFE;stroke-width:346.18;stroke-linecap:round;stroke-linejoin:round;stroke-miterlimit:22.9256}
    .fil0 {fill:none}
    .fil1 {fill:#FEFEFE}
   ]]>
  </style>
    <clipPath id="id0">
     <path d="M19516.29 0l91285.98 0 0 141714.95 -91285.98 0 0 -141714.95z"/>
    </clipPath>
 </defs>
 <g id="Layer_x0020_1">
  <metadata id="CorelCorpID_0Corel-Layer"/>
  <g id="_2919380983088">
   <ellipse class="fil0 str0" cx="64307.17" cy="41549.28" rx="55467.32" ry="21724.68"/>
   <ellipse class="fil0 str0" cx="64307.16" cy="71257.63" rx="64134.09" ry="25769.23"/>
   <ellipse class="fil0 str0" cx="64364.86" cy="100897.97" rx="55525.13" ry="21898.07"/>
   <ellipse class="fil0 str0" cx="64399.11" cy="121315.44" rx="31870.23" ry="12386.27"/>
   <ellipse class="fil0 str0" cx="64307.19" cy="20816.84" rx="30784.59" ry="13363.98"/>
   <path class="fil0 str0" d="M64615.23 12408.93c14675.41,41612.48 17806.77,142636.64 0,116567.68"/>
   <path class="fil0 str0" d="M64615.23 12408.93c66108.69,42699.21 49225.86,136901.55 0,116567.68"/>
   <path class="fil0 str0" d="M64615.23 12408.93c95156.7,28505.19 67390.49,128025.59 0,116567.68"/>
   <path class="fil0 str0" d="M64615.23 12408.93c99405.5,4058.92 70900.9,124001.5 0,116567.68"/>
   <path class="fil0 str0" d="M64615.23 12408.93c84571.02,-4507.65 74205.83,110301.45 0,116567.68"/>
   <path class="fil0 str0" d="M64615.23 12408.93c69519.01,-16716.11 56511.42,98174.43 0,116567.68"/>
   <path class="fil0 str0" d="M64615.23 12408.93c37006.61,-23738.1 17851.61,98701.55 0,116567.68"/>
   <path class="fil0 str0" d="M64615.23 12408.93c-17458.52,-28519.03 -17078.29,82572.42 0,116567.68"/>
   <path class="fil0 str0" d="M64615.23 12408.93c-47408.2,-22410.87 -61490.65,81005.77 0,116567.68"/>
   <path class="fil0 str0" d="M64615.23 12408.93c-73086.23,-12220.34 -86811.21,97638.08 0,116567.68"/>
   <path class="fil0 str0" d="M64615.23 12408.93c-36651.59,50707.05 -18669.87,145208.09 0,116567.68"/>
   <path class="fil0 str0" d="M64615.23 12408.93c-83020.46,44032.91 -43514.62,141631.94 0,116567.68"/>
   <path class="fil0 str0" d="M64615.23 12408.93c-104925.1,26642.59 -58432.4,132882.66 0,116567.68"/>
   <path class="fil0 str0" d="M64615.23 12408.93c-101422.16,4750.51 -67544.64,129673.3 0,116567.68"/>
  </g>
  <g id="_2919380973104">
   <g style="clip-path:url(#id0)">
    <image x="19516.29" y="0" width="91285.98" height="141714.95" xlink:href="Logo-White_Images\Logo-White_ImgID1.png"/>
   </g>
  </g>
  <g id="_2919380975264">
   <path class="fil1" d="M40507.1 103054.46c-2371.38,-2357.05 -3839.42,-5621.85 -3839.42,-9229.5 0,-7186.94 5826.25,-13013.09 13013.09,-13013.09 7186.94,0 13013.09,5826.15 13013.09,13013.09l-7528.51 -0.1c0,-3029.01 -2455.47,-5484.48 -5484.48,-5484.48 -3029.01,0 -5484.48,2455.47 -5484.48,5484.48 0,3029.01 2455.47,5484.48 5484.48,5484.38 3577.92,-0.1 6818.78,1444.2 9171.31,3781.33 2372.55,2357.15 3841.68,5622.83 3841.68,9231.76 0,7186.74 -5826.15,13012.99 -13013.09,13012.99l0.1 -7529.2c3029.01,0.69 5484.48,-2454.88 5484.48,-5483.79 0,-3029.01 -2455.47,-5484.48 -5484.48,-5484.38 -3579.39,0.1 -6821.23,-1444.98 -9173.77,-3783.49z"/>
   <path class="fil1" d="M80845.14 107086.49c7162.7,-28.46 12960.49,-5843.22 12960.49,-13012.5 0,-7169.37 -5797.79,-12983.94 -12960.49,-13012.5l0 -0.49 -44.45 0 -8.24 -0.1 -11.09 0.1 -16143.06 0 0 7534.99 4348 0 11542.98 0 315.86 0 0 -5.79c3004.67,28.26 5431.88,2472.45 5431.88,5483.79 0,3011.44 -2427.21,5455.63 -5431.88,5483.89l0 0.59 -52.59 0 -11803.21 0 -4351.04 0 0 7535.08 0 17170.72 8283.97 0 0 -17170.72 7922.87 0 0 -7.06z"/>
   <path class="fil1" d="M89572.93 53159.87l0 7454.23c-5950.47,0 -11728.83,0 -17688.03,0l0 -7454.23 4705.17 0 0 -36508.92 8539 0 0 36508.92 4443.87 0z"/>
   <polygon class="fil1" points="51974.92,16389.65 69619.39,60614.1 61080.29,60614.1 52018.49,37301.57 44089.34,61001.79 35288.94,61001.79 "/>
  </g>
 </g>
</svg>
