<?xml version="1.0" encoding="UTF-8"?>
<!DOCTYPE svg PUBLIC "-//W3C//DTD SVG 1.1//EN" "http://www.w3.org/Graphics/SVG/1.1/DTD/svg11.dtd">
<!-- Creator: CorelDRAW 2021 (64-Bit) -->
<svg xmlns="http://www.w3.org/2000/svg" xml:space="preserve" width="160.794mm" height="158.613mm" version="1.1" style="shape-rendering:geometricPrecision; text-rendering:geometricPrecision; image-rendering:optimizeQuality; fill-rule:evenodd; clip-rule:evenodd"
viewBox="0 0 7837.12 7730.86"
 xmlns:xlink="http://www.w3.org/1999/xlink"
 xmlns:xodm="http://www.corel.com/coreldraw/odm/2003">
 <defs>
  <style type="text/css">
   <![CDATA[
    .fil1 {fill:#FEFEFE}
    .fil0 {fill:#004AAD}
   ]]>
  </style>
 </defs>
 <g id="Layer_x0020_1">
  <metadata id="CorelCorpID_0Corel-Layer"/>
  <rect class="fil0" x="-0" y="-0" width="7837.12" height="7730.86" rx="520.05" ry="659.32"/>
  <g id="_2919999908928">
   <path class="fil1" d="M1167.11 3863.2c-263.84,-274.6 -427.18,-654.96 -427.18,-1075.26 0,-837.3 648.23,-1516.06 1447.85,-1516.06 799.63,0 1447.86,678.77 1447.86,1516.06l-837.64 -0.01c0,-352.89 -273.2,-638.96 -610.21,-638.96 -337.01,0 -610.21,286.07 -610.21,638.96 0,352.88 273.2,638.96 610.21,638.94 398.09,-0.01 758.67,168.25 1020.42,440.53 263.98,274.62 427.44,655.08 427.44,1075.52 0,837.28 -648.24,1516.05 -1447.86,1516.05l0.01 -877.17c337.01,0.07 610.21,-286 610.21,-638.88 0,-352.88 -273.2,-638.96 -610.21,-638.95 -398.24,0.01 -758.94,-168.34 -1020.68,-440.78z"/>
   <path class="fil1" d="M5655.18 4332.94c796.94,-3.3 1442.01,-680.74 1442.01,-1515.98 0,-835.25 -645.07,-1512.67 -1442.01,-1516l0 -0.06 -4.94 0 -0.92 -0.01 -1.24 0.01 -1796.1 0 0 877.85 483.76 0 1284.3 0 35.14 0 0 -0.68c334.32,3.29 604.37,288.04 604.37,638.89 0,350.84 -270.05,635.59 -604.37,638.88l0 0.07 -5.84 0 -1313.25 0 -484.09 0 0 877.85 0 2000.44 921.69 0 0 -2000.44 881.5 0 0 -0.82z"/>
  </g>
 </g>
</svg>
